HIERARCHY
ROOT Hip
{
   OFFSET 0.00000 0.00000 0.00000
   CHANNELS 6 Xposition Yposition Zposition Zrotation Yrotation Xrotation
   JOINT Head
   {
      OFFSET 0.000000 24.190001 0.000000
      CHANNELS 3 Zrotation Yrotation Xrotation
      End Site
      {
         OFFSET 0.000000 16.761999 0.000000
      }
      JOINT LeftShoulder
      {
         OFFSET 11.515001 0.000000 0.000000
         CHANNELS 3 Zrotation Yrotation Xrotation
         JOINT LeftHand
         {
            OFFSET 0.000000 -15.248000 0.000000
            CHANNELS 3 Zrotation Yrotation Xrotation
            End Site
            {
               OFFSET 0.000000 -14.262999 0.000000
            }
         }
      }
      JOINT RightShoulder
      {
         OFFSET -12.116999 0.000000 0.000000
         CHANNELS 3 Zrotation Yrotation Xrotation
         JOINT RightHand
         {
            OFFSET 0.000000 -16.378001 0.000000
            CHANNELS 3 Zrotation Yrotation Xrotation
            End Site
            {
               OFFSET 0.000000 -13.832000 0.000000
            }
         }
      }
   }
   JOINT LeftHip
   {
      OFFSET 8.994099 0.000000 0.000000
      CHANNELS 3 Zrotation Yrotation Xrotation
      JOINT LeftKnee
      {
         OFFSET 0.000000 -25.251000 0.000000
         CHANNELS 3 Zrotation Yrotation Xrotation
         JOINT LeftFoot
         {
            OFFSET 0.000000 -22.891001 0.000000
            CHANNELS 3 Zrotation Yrotation Xrotation
            End Site
            {
               OFFSET 0.000000 0.000000 14.411000
            }
         }
      }
   }
   JOINT RightHip
   {
      OFFSET -8.994099 0.000000 0.000000
      CHANNELS 3 Zrotation Yrotation Xrotation
      JOINT RightKnee
      {
         OFFSET 0.000000 -25.909001 0.000000
         CHANNELS 3 Zrotation Yrotation Xrotation
         JOINT RightFoot
         {
            OFFSET 0.000000 -21.714000 0.000000
            CHANNELS 3 Zrotation Yrotation Xrotation
            End Site
            {
               OFFSET 0.000000 0.000000 13.963001
            }
         }
      }
   }
}
MOTION
Frames: 27
Frame Time: 0.016670
-6.226758 46.163215 15.864856 1.063245 -12.680754 2.446914 -1.123560 2.604153 -29.569989 9.867779 0.498265 33.620373 12.555090 -3.969663 58.660861 0.019174 4.521798 22.439538 8.586025 -0.091182 35.343722 68.447696 81.400432 74.169195 -36.613700 39.762875 -7.849752 -1.846409 45.526575 -29.791759 12.406292 -58.093457 -5.140012 30.799751 -37.710424 -19.153430 3.024630 -45.605419 -32.054235
-6.222193 46.178564 15.868140 1.039917 -12.771514 2.227662 -1.029776 2.569494 -29.356703 9.366988 -0.165959 33.548499 12.765484 -2.762903 59.144070 1.450763 8.154985 22.678970 12.828485 1.168563 34.806477 127.230237 77.957068 132.185757 -33.260573 33.874351 -0.593924 -4.162988 41.898925 -31.348765 12.404667 -60.561307 -4.998157 30.404078 -36.680039 -17.868454 2.405164 -44.677712 -31.511641
-6.203752 46.185130 15.830862 1.012006 -12.556008 2.340684 -0.935058 2.227134 -29.754722 8.898084 -0.826647 34.117512 12.977262 -1.531243 59.301915 2.901721 11.593908 23.636117 16.985979 2.541705 33.886174 163.287024 53.110004 165.927534 -23.417959 22.312742 15.336951 -3.101574 29.365688 -30.279035 13.029275 -62.774705 -5.604612 30.094227 -35.891732 -16.790126 1.772669 -43.860750 -31.047421
-6.178180 46.188111 15.793932 0.965643 -12.912510 2.092558 -0.795819 2.435641 -29.381671 8.243451 -1.361357 33.632087 13.360408 -0.502306 60.277799 4.142778 15.198182 23.733318 21.390508 3.818299 33.230407 168.837850 31.527412 168.935426 -15.685915 16.159727 26.336972 -0.097414 15.887744 -28.913092 13.130605 -64.729942 -5.621127 29.647782 -35.148048 -15.558259 1.093342 -42.873879 -30.559055
-6.162259 46.196083 15.767776 0.939144 -13.168896 1.877644 -0.691624 2.510084 -29.169433 7.765659 -1.946475 33.269319 13.719576 0.580262 61.464845 5.366857 18.508132 24.147958 25.624165 5.146497 32.527270 171.189061 18.189649 169.344500 -8.565596 14.964514 31.943859 3.402082 4.525280 -28.683130 13.178395 -66.581688 -5.609634 29.292076 -34.535813 -14.451444 0.443365 -41.921270 -30.074692
-6.147041 46.204156 15.743286 0.915123 -13.343534 1.651921 -0.572561 2.497744 -28.998309 7.248362 -2.547215 32.843610 14.151682 1.500183 62.893714 6.510489 21.594302 24.687367 29.707040 6.498583 31.775935 172.724692 9.055457 169.129937 -1.529251 16.024389 35.439693 7.014776 -5.512001 -29.766685 12.989691 -68.429992 -5.367187 29.133376 -33.980854 -13.431139 -0.233810 -40.981514 -29.657989
-6.153915 46.226415 15.754829 0.875677 -13.205145 1.365638 -0.410983 2.163029 -28.876544 6.851509 -3.123605 32.522871 14.510214 2.547590 64.432610 7.609086 24.390368 25.417038 33.511114 7.894930 31.088767 173.918432 2.852307 168.597701 5.298848 18.289718 37.996810 10.331447 -14.544270 -31.860350 12.038949 -70.507694 -4.327397 29.292837 -33.447242 -12.456527 -0.874562 -40.076244 -29.243872
-6.157573 46.246714 15.750842 0.835539 -13.172851 1.110796 -0.294763 1.952335 -28.832616 6.432146 -3.719117 32.038116 14.899791 3.371831 66.542093 8.716007 26.884381 26.256547 37.176580 9.233261 30.513918 174.819689 -1.277073 167.988202 11.792022 21.436105 40.307187 13.130459 -22.685541 -34.519841 10.812366 -72.395839 -3.072517 29.528933 -32.981204 -11.429536 -1.537896 -39.194511 -28.912819
-6.163562 46.269960 15.751536 0.788032 -13.150149 0.831050 -0.207680 1.882091 -28.825003 6.105767 -4.340130 31.371400 15.274057 4.047721 69.209918 9.819657 29.015641 27.273546 40.738677 10.474000 30.009112 175.462888 -3.777310 167.308899 18.019984 25.088806 42.788946 15.466677 -30.143469 -37.356067 8.869014 -74.071298 -1.132049 29.920108 -32.584394 -10.416435 -2.174120 -38.381329 -28.641951
-6.184764 46.298117 15.773459 0.710149 -13.048345 0.489762 -0.080321 1.809365 -28.738683 5.839095 -5.072884 30.756256 15.638039 4.523360 72.129912 10.862082 30.870816 28.372730 44.203902 11.606205 29.588127 175.931261 -4.969481 166.525667 24.078473 28.919458 45.680667 17.442609 -37.014882 -40.084779 5.822986 -75.159586 1.958068 30.617286 -32.402861 -9.734775 -2.647318 -37.878542 -28.377734
-6.217347 46.324085 15.805598 0.600674 -12.976648 0.088647 0.094739 1.778144 -28.570000 5.629739 -5.778283 30.206751 15.930921 4.938171 75.104261 11.835692 32.640730 29.417386 47.915508 12.443472 29.319687 176.305009 -5.182054 165.717547 30.256703 32.735864 49.029038 19.108031 -43.403940 -42.654156 1.943984 -74.642520 5.760909 31.776468 -32.801608 -9.471286 -2.916081 -38.149830 -28.361903
-6.258196 46.358823 15.855398 0.486121 -12.854757 -0.389286 0.298476 1.756157 -28.321525 5.511543 -6.442981 29.718522 16.140645 5.328998 78.095891 12.723812 34.290084 30.447733 51.637743 13.115509 29.048016 176.502620 -4.732509 164.880480 36.382013 36.329588 52.894990 20.576097 -49.380116 -44.941627 -1.675078 -72.710963 9.346824 33.552164 -33.559568 -10.033272 -2.898147 -39.080099 -28.424165
-6.313592 46.388201 15.927649 0.362506 -12.686961 -0.945667 0.491458 1.656997 -27.979709 5.224477 -7.216926 29.452035 16.324086 5.480528 81.083921 13.569358 35.914152 31.388995 55.367890 13.667642 28.748707 176.594268 -3.917732 163.949334 42.519536 39.458283 57.224162 21.840843 -55.023666 -46.971897 -4.660689 -70.050386 12.404138 35.735273 -34.375905 -11.136395 -2.724155 -40.376137 -28.578056
-6.378568 46.415104 16.023307 0.226920 -12.469551 -1.563467 0.706250 1.530600 -27.597323 4.752837 -8.120230 29.453056 16.464608 5.437074 83.919980 14.421427 37.488354 32.386868 59.038946 14.108908 28.414328 176.581017 -2.921087 162.972453 48.508184 42.007173 61.801526 22.937182 -60.292525 -48.680657 -7.156463 -67.106301 15.120784 38.290898 -35.033519 -12.700797 -2.401164 -41.838747 -28.709631
-6.462266 46.430454 16.137293 0.068973 -12.220928 -2.226003 0.920701 1.363560 -27.192183 4.204335 -9.156292 29.782528 16.551001 5.281850 86.464997 15.278396 38.977403 33.397767 62.523811 14.509383 28.039856 176.605565 -1.870846 161.927133 54.433370 43.960843 66.464666 23.841122 -65.270449 -50.134927 -9.511129 -63.941683 17.817459 41.528803 -35.479001 -14.595218 -1.980691 -43.518581 -28.892899
-6.565152 46.452941 16.261338 -0.091148 -12.001301 -2.898201 1.119923 1.293685 -26.818705 3.655975 -10.204289 30.245942 16.573408 5.193519 88.782993 16.146164 40.275331 34.479710 65.686161 14.964086 27.577085 176.621438 -0.898735 160.910692 60.140799 45.443919 71.067258 24.617735 -70.004863 -51.286306 -11.432360 -60.835095 20.195286 44.860017 -35.651538 -16.620984 -1.476443 -45.163185 -29.011669
-6.681081 46.483554 16.399371 -0.221399 -11.822189 -3.560984 1.296476 1.198654 -26.537722 3.118408 -11.198719 30.993390 16.570744 5.409815 90.648707 17.007142 41.333931 35.567377 68.452894 15.483901 27.258899 176.620222 -0.064692 159.921762 65.573095 46.540561 75.473351 25.275513 -74.575844 -52.155437 -13.086650 -57.806254 22.266838 48.254795 -35.728726 -18.547430 -0.901119 -46.816412 -29.111595
-6.801460 46.514262 16.544136 -0.317147 -11.650836 -4.188513 1.483190 1.108574 -26.308314 2.546722 -12.155316 31.896983 16.565398 5.851190 92.177583 17.709576 42.142605 36.616911 70.859859 16.084301 27.036344 176.583981 0.651911 159.049957 70.747728 47.406588 79.676848 25.820980 -79.068824 -52.759021 -14.546645 -54.987189 24.100141 51.608663 -35.710022 -20.391933 -0.371124 -48.409652 -29.288739
-6.930434 46.540174 16.696555 -0.367398 -11.456226 -4.785798 1.626703 1.060232 -26.103818 1.986478 -13.163164 32.882050 16.580931 6.529572 93.494976 18.279253 42.658073 37.585032 72.876759 16.781794 26.948962 176.533506 1.249475 158.278282 75.785498 48.063129 83.760816 26.222204 -83.553882 -53.127882 -16.045470 -52.480257 25.928424 55.235654 -35.649319 -22.360390 0.243649 -50.060215 -29.435919
-7.066119 46.561159 16.851521 -0.357028 -11.261255 -5.364747 1.686087 1.058812 -25.946138 1.265037 -14.309708 33.822496 16.605563 7.208640 94.633589 18.686868 42.832618 38.388726 74.464778 17.576177 27.068593 176.466789 1.761105 157.598938 80.797518 48.585632 87.749612 26.478907 -88.105089 -53.249941 -17.670717 -50.614478 27.877767 59.136550 -35.605202 -24.800232 0.914484 -51.883548 -29.631799
-7.232968 46.555218 17.005834 -0.305398 -11.125973 -5.879169 1.675000 1.089659 -25.854009 0.611522 -15.491914 34.803492 16.705984 8.144166 95.401999 18.945965 42.843495 38.992471 75.856661 18.427659 27.310860 176.497457 2.097805 156.948595 85.876085 48.776245 91.669000 26.545274 -92.716048 -53.144035 -19.200828 -49.341140 29.795966 63.029696 -35.488191 -27.638448 1.535035 -53.661333 -29.893399
-7.430587 46.516432 17.162517 -0.220403 -11.143099 -6.366474 1.657014 1.284066 -25.718956 -0.078731 -16.711707 35.625789 16.872898 9.193863 95.918505 19.079244 42.731088 39.323595 76.920211 19.335393 27.759559 176.595005 2.195128 156.198285 90.941571 48.508813 95.462077 26.408732 -97.425531 -52.799876 -20.556325 -48.553209 31.534867 66.627662 -35.522448 -30.703295 2.016636 -55.393985 -30.309706
-7.670930 46.449842 17.311529 -0.099052 -11.380757 -6.797709 1.610765 1.629490 -25.569375 -0.787271 -17.918957 36.396036 17.150981 10.395031 96.016354 19.093444 42.648015 39.348129 77.842635 20.273706 28.353365 176.848323 1.958618 155.368130 95.891696 47.799508 98.926500 26.114287 -102.099129 -52.192641 -21.428163 -47.958668 32.816218 69.575094 -35.520102 -33.797572 2.323683 -56.559523 -30.724554
-7.935108 46.371497 17.455772 0.092506 -11.802131 -7.189871 1.496230 2.064762 -25.406296 -1.473697 -19.070913 37.112536 17.580096 11.834361 95.659067 18.950595 42.575909 39.039053 78.561949 21.279290 29.121157 177.168728 1.414559 154.480834 100.551559 46.770741 101.953093 25.704963 -106.658595 -51.340230 -21.644359 -47.226209 33.446678 71.621992 -35.369417 -36.770955 2.289143 -56.718704 -31.194464
-8.242069 46.276297 17.597215 0.274215 -12.427694 -7.548586 1.453223 2.678303 -25.197266 -2.186625 -20.144082 37.680077 18.168763 13.475028 94.898881 18.570622 42.473292 38.500308 79.074965 22.396400 29.976256 177.676060 0.604163 153.395817 104.736491 45.299123 104.314781 25.247475 -110.866633 -50.325049 -21.303719 -46.325925 33.531441 73.042104 -35.329157 -39.584252 2.224882 -56.180850 -31.452584
-8.582671 46.158256 17.737850 0.478981 -13.112863 -7.854913 1.377776 3.243270 -25.036354 -2.854476 -21.084985 38.306013 18.928379 15.327706 93.752952 18.096402 42.342825 37.806173 79.415067 23.621009 30.938042 178.259973 -0.381445 152.274150 108.311869 43.695780 106.067428 24.755274 -114.713109 -49.241760 -20.622901 -45.346282 33.254412 74.213700 -35.525108 -42.371659 2.311269 -55.388108 -31.423897
-8.962625 46.003284 17.892461 0.719374 -13.914367 -8.149856 1.254242 3.837098 -24.837614 -3.555303 -21.904712 38.953815 19.835207 17.293351 92.337266 17.628559 42.221023 36.949377 79.611913 24.997009 31.999402 178.918622 -1.474620 150.947194 111.247963 41.875729 107.158742 24.288945 -118.059123 -48.182207 -20.184746 -44.717460 32.973824 76.054976 -36.646140 -45.160456 2.097869 -55.356948 -32.093167
